# xmcd
#
# Track frame offsets:
#	150
#	15502
#	33147
#	48811
#	61113
#	72079
#	86072
#	98251
#	116640
#	130533
#	148076
#	161281
#
# Disc length: 2367 seconds
#
# Revision: 1
# Processed by: cddbd v1.5.2PL0 Copyright (c) Steve Scherf et al.
# Submitted via: audiograbber 1.83.01
#
DISCID=86093d0c
DTITLE=Various Artist - Legends of Country Live Bonus
DYEAR=2006
DGENRE=Country
TTITLE0=Bill Anderson - 01 - City Lights
TTITLE1=Bill Anderson - 02 - Still
TTITLE2=B.J.Thomas - 03 - I'm So Lonesome I Could Cry
TTITLE3=Hank Locklin - 04 - Please Help Me, I'm Falling
TTITLE4=The Browns - 05 - The Old Lamplighter
TTITLE5=The Browns - 06 - The Three Bells
TTITLE6=Roy Clark - 07 - Tips Of My Fingers
TTITLE7=Roy Clark - 08 - Yesterday, When I Was Young
TTITLE8=Glen Campbell - 09 - Southern Nights
TTITLE9=Glrn Campbell - 10 - Galveston
TTITLE10=Glrn Campbell - 11 - Witchita Lineman
TTITLE11=Glrn Campbell - 12- Rhinestone Cowboy
EXTD=
EXTT0=
EXTT1=
EXTT2=
EXTT3=
EXTT4=
EXTT5=
EXTT6=
EXTT7=
EXTT8=
EXTT9=
EXTT10=
EXTT11=
PLAYORDER=
